<svg xmlns="http://www.w3.org/2000/svg" data-name="Layer 1" width="572.88236" height="394.51681" viewBox="0 0 572.88236 394.51681" xmlns:xlink="http://www.w3.org/1999/xlink"><path d="M713.55882,647.25841a11.01914,11.01914,0,0,1-14.26484-6.10641L524.89055,342.27119a11.01938,11.01938,0,0,1,6.10632-14.26493L708.23006,232.2839a11.01912,11.01912,0,0,1,14.26484,6.10641L897.89833,537.26312a11.01937,11.01937,0,0,1-6.10632,14.26493Z" transform="translate(-313.55882 -252.7416)" fill="#e6e6e6"/><path d="M701.8066,641.46606a10.90635,10.90635,0,0,1-14.11355-6.04611L527.21992,345.99244A10.90659,10.90659,0,0,1,533.266,331.8789L697.983,241.02553a10.90635,10.90635,0,0,1,14.11354,6.04612l160.47313,289.4275A10.90658,10.90658,0,0,1,866.523,550.6544Z" transform="translate(-313.55882 -252.7416)" fill="#fff"/><path d="M665.3721,603.33893a4.00029,4.00029,0,0,1-5.284-1.9356L528.59338,351.29331a3.99987,3.99987,0,0,1,1.93555-5.28369L703.978,272.94856a4.00029,4.00029,0,0,1,5.284,1.9356L840.75671,524.9942a3.99987,3.99987,0,0,1-1.93555,5.28369Z" transform="translate(-313.55882 -252.7416)" fill="#e6e6e6"/><path d="M651.61641,581.83892a4.00029,4.00029,0,0,1-5.284-1.9356L547.59338,373.29331a3.99987,3.99987,0,0,1,1.93555-5.28369l86.82128-40.55772a4.00029,4.00029,0,0,1,5.284,1.9356l98.73905,206.61a3.99987,3.99987,0,0,1-1.93555,5.28369Z" transform="translate(-313.55882 -252.7416)" fill="#1a3c6e"/><path d="M771.55882,647.25841h-457a1,1,0,0,1,0-2h457a1,1,0,0,1,0,2Z" transform="translate(-313.55882 -252.7416)" fill="#3f3d56"/><circle cx="197.61835" cy="165.09355" r="13" fill="#e6e6e6"/><path d="M508.17718,429.83514a6,6,0,1,1,6-6A6.00681,6.00681,0,0,1,508.17718,429.83514Zm0-10a4,4,0,1,0,4,4A4.00458,4.00458,0,0,0,508.17718,419.83514Z" transform="translate(-313.55882 -252.7416)" fill="#3f3d56"/><path d="M578.60646,508.01437A9.12944,9.12944,0,0,1,570.83626,504.5l-38.68-67.36a1.01148,1.01148,0,0,0-1.85.02l-37.66,67.36a9.13,9.13,0,0,1-12.34,3.77,9.2652,9.2652,0,0,1-3.76-12.43l37.95-67.4a19.13542,19.13542,0,0,1,16.91-9.86h.31a19.13476,19.13476,0,0,1,16.79,9.86l38.54,67.4a9.13223,9.13223,0,0,1-8.44,12.7Z" transform="translate(-313.55882 -252.7416)" fill="#1a3c6e"/><path d="M375.43006,541.30378l10.08056-.28018L453.03,415.69811a17.1183,17.1183,0,0,1,14.74161-8.41582h8.35627a17.12278,17.12278,0,0,1,14.61134,8.41582l47.00425,82.35908a17.15591,17.15591,0,0,1,.38059,15.97063,17.12662,17.12662,0,0,1-15.39225,9.00517H406.29726a17.21084,17.21084,0,0,1-4.88434-.74048l-28.6887,19.14969Z" transform="translate(-313.55882 -252.7416)" fill="#1a3c6e"/><path d="M816.12967,469.30378l-27.5,21H673.94075a17.23871,17.23871,0,0,1-14.88116-8.54547,17.1019,17.1019,0,0,1-.314-17.45453l55.25-97a17.07509,17.07509,0,0,1,14.98614-8.5h7.00855a17.075,17.075,0,0,1,14.79923,8.5l61.58093,87.51307,5.17017,15.48693Z" transform="translate(-313.55882 -252.7416)" fill="#1a3c6e"/><polygon points="178.571 381 154.571 387.679 123.571 381 123.571 322 178.571 322 178.571 381" fill="#e6e6e6"/><path d="M610.12967,568.30378s-28-51-66-26c0,0,0,53,19,55l-3,8,65,10Z" transform="translate(-313.55882 -252.7416)" fill="#a0616a"/><path d="M636.02975,389.30388h-.00008a17.04947,17.04947,0,0,1-17.02006-15.85345,106.67526,106.67526,0,0,0-2.01-14.14653,9.36985,9.36985,0,0,1,4.42005-10.30009,9.24089,9.24089,0,0,1,11.20008,1.3999c1.29,1.32007,2.63,2.8,3.93006,4.3501a305.26472,305.26472,0,0,1,21.12988,36.24018l.18007.37988-.35999.18994A17.04261,17.04261,0,0,1,636.02975,389.30388Z" transform="translate(-313.55882 -252.7416)" fill="#1a3c6e"/><circle cx="233.07085" cy="55.56218" r="34" fill="#a0616a"/><path d="M521.12967,374.30378s-66-15-72,25c0,0-4,12,4,18l-3,123s92,78,121,42l-21.5-190.5Z" transform="translate(-313.55882 -252.7416)" fill="#1a3c6e"/><path d="M594.12967,287.30378s-14,22-28,12-13-20-13-20a26.74307,26.74307,0,0,1,13-26c14-8,25-1,25-1Z" transform="translate(-313.55882 -252.7416)" fill="#a0616a"/><path d="M592.12967,276.30378s-3,10-13.5,14-16.5-2-16.5-2l-15,13-7,20,68,10,2-36Z" transform="translate(-313.55882 -252.7416)" fill="#a0616a"/><path d="M667.12967,456.30378s2,56-39,45c0,0-2-1-2-9l-1-37-11-22,23-14,20,11Z" transform="translate(-313.55882 -252.7416)" fill="#a0616a"/><path d="M583.12967,303.30378l-18-5-24,12-18,20s-27,18-28,62,5,76,5,76,38-18,65-1,58,15,58,15-10-94,1-120c0,0,9-43-13-54Z" transform="translate(-313.55882 -252.7416)" fill="#1a3c6e"/><path d="M456.12967,433.30378s-6,33,7,33,13-37,13-37l-10-3Z" transform="translate(-313.55882 -252.7416)" fill="#a0616a"/><path d="M490.55863,389.30378h-.00008a17.06811,17.06811,0,0,0-18.11835-9.71331,12.01141,12.01141,0,0,0-4.85266,2.17074,9.36954,9.36954,0,0,0-3.13785,10.69647,9.24082,9.24082,0,0,0,9.3999,5.56006c1.83658-.18262,3.78314-.40308,5.72971-.62354a305.26392,305.26392,0,0,0,41.67923-7.69385l.40308-.12-.00951-.42261A17.0426,17.0426,0,0,0,490.55863,389.30378Z" transform="translate(-313.55882 -252.7416)" fill="#1a3c6e"/><path d="M633.12967,407.30378s8,37-10,39-15-43-15-43l12-6Z" transform="translate(-313.55882 -252.7416)" fill="#a0616a"/><path d="M512.12967,624.30378l-18,8s-30-14-28-2c2,13,26,13,26,13l16,7,40,1Z" transform="translate(-313.55882 -252.7416)" fill="#2f2e41"/><path d="M653.12967,586.30378s-8,36-12,44l16,8,19-48Z" transform="translate(-313.55882 -252.7416)" fill="#a0616a"/><path d="M659.12967,644.30378s-17.5-1.5-19.5-.5-27-9-27-9-5,23,2,25,56,10,60,2S659.12967,644.30378,659.12967,644.30378Z" transform="translate(-313.55882 -252.7416)" fill="#2f2e41"/><ellipse cx="239.07085" cy="48.06218" rx="4.5" ry="8" fill="#a0616a"/></svg>